<?xml version="1.0" encoding="UTF-8"?>
<svg xmlns="http://www.w3.org/2000/svg" width="155" height="42" viewBox="0 0 155 42" fill="none">
  <path d="M26.419 6.01163L21.1599 3.82811C20.9305 3.73302 20.6683 3.84154 20.5732 4.07088L15.6881 15.8364C15.5965 16.0571 15.4214 16.2311 15.2018 16.3219L6.62732 19.8659C6.25776 20.0188 5.88714 19.6479 6.04136 19.2784L10.1634 9.34863C10.5871 8.32902 11.399 7.5188 12.4198 7.09635L20.7455 3.6553L27.9406 0.682133C28.2968 0.534756 28.6606 0.875584 28.5375 1.24082L27.0166 5.74005C26.934 5.98567 26.6599 6.11051 26.419 6.01163ZM40.5634 28.5375C40.9286 28.6607 41.2694 28.2968 41.122 27.9406L38.1489 20.7455L34.7078 12.4198C34.2854 11.399 33.4752 10.5871 32.4555 10.1634L22.5258 6.04137C22.1567 5.88837 21.7853 6.25777 21.9383 6.62733L25.4823 15.2018C25.5731 15.4214 25.7488 15.5973 25.9678 15.6881L37.7345 20.5727C37.9639 20.6678 38.0724 20.93 37.9773 21.1594L35.7938 26.4185C35.6944 26.6582 35.818 26.9328 36.0653 27.0161L40.5634 28.5375ZM13.2667 40.5634C13.1435 40.9286 13.5074 41.2694 13.8636 41.122L21.0586 38.1489L29.3843 34.7078C30.4052 34.2854 31.217 33.4752 31.6408 32.4556L35.7628 22.5258C35.9158 22.1568 35.5464 21.7853 35.1768 21.9383L26.6023 25.4823C26.3828 25.5731 26.2069 25.7488 26.1161 25.9678L21.2314 37.7345C21.1364 37.9639 20.8741 38.0724 20.6448 37.9773L15.3856 35.7938C15.1459 35.6944 14.8714 35.818 14.788 36.0653L13.2667 40.5634ZM1.24081 13.2667C0.875577 13.1435 0.534749 13.5074 0.682127 13.8636L3.6553 21.0586L7.09685 29.3856C7.5193 30.4064 8.32952 31.2183 9.34913 31.642L19.2789 35.764C19.6479 35.917 20.0193 35.5476 19.8664 35.1781L16.3224 26.6036C16.2315 26.384 16.0559 26.2081 15.8369 26.1173L4.07087 21.2309C3.84153 21.1359 3.73302 20.8736 3.8281 20.6443L6.01163 15.3851C6.111 15.1454 5.98739 14.8709 5.74005 14.7875L1.24081 13.2667Z" fill="#DC3918"></path>
  <path d="M51.5415 29.4021V19.7637H48.4434V17.2066H51.5415V14.9446C51.5415 14.1086 51.7874 13.4447 52.2791 12.953C52.7873 12.4448 53.4429 12.1908 54.2461 12.1908H57.1966V14.7479H55.328C54.869 14.7479 54.6395 14.9937 54.6395 15.4855V17.2066H59.5571V19.7637H54.6395V29.4021H51.5415ZM59.5571 29.4021V17.2066H62.6551V29.4021H59.5571ZM61.1061 15.8789C60.5488 15.8789 60.0734 15.6986 59.68 15.338C59.303 14.9774 59.1145 14.502 59.1145 13.9119C59.1145 13.3218 59.303 12.8464 59.68 12.4858C60.0734 12.1252 60.5488 11.9449 61.1061 11.9449C61.6798 11.9449 62.1551 12.1252 62.5322 12.4858C62.9092 12.8464 63.0977 13.3218 63.0977 13.9119C63.0977 14.502 62.9092 14.9774 62.5322 15.338C62.1551 15.6986 61.6798 15.8789 61.1061 15.8789ZM65.1096 29.4021V12.1908H68.2077V29.4021H65.1096ZM70.6572 29.4021V17.2066H73.7061V18.5344H74.1487C74.3618 18.1246 74.7142 17.7722 75.2059 17.4771C75.6977 17.1657 76.3452 17.0099 77.1484 17.0099C78.0171 17.0099 78.7138 17.182 79.2383 17.5263C79.7628 17.8541 80.1644 18.2885 80.4431 18.8294H80.8857C81.1643 18.3049 81.5577 17.8705 82.0659 17.5263C82.574 17.182 83.2953 17.0099 84.2296 17.0099C84.9836 17.0099 85.6639 17.1739 86.2704 17.5017C86.8933 17.8131 87.385 18.2967 87.7456 18.9524C88.1226 19.5916 88.3111 20.403 88.3111 21.3865V29.4021H85.2131V21.6078C85.2131 20.9358 85.041 20.4358 84.6968 20.108C84.3525 19.7637 83.869 19.5916 83.2461 19.5916C82.5412 19.5916 81.9921 19.8211 81.5987 20.2801C81.2217 20.7227 81.0332 21.3619 81.0332 22.1979V29.4021H77.9352V21.6078C77.9352 20.9358 77.763 20.4358 77.4188 20.108C77.0746 19.7637 76.591 19.5916 75.9681 19.5916C75.2633 19.5916 74.7142 19.8211 74.3208 20.2801C73.9438 20.7227 73.7553 21.3619 73.7553 22.1979V29.4021H70.6572ZM95.8476 29.7463C94.4052 29.7463 93.1676 29.4021 92.1349 28.7136C91.1186 28.0252 90.4957 26.886 90.2662 25.296L91.7169 25.0255C91.848 25.8943 92.1103 26.5827 92.5037 27.0909C92.9135 27.5826 93.4053 27.935 93.979 28.1481C94.5691 28.3612 95.192 28.4678 95.8476 28.4678C96.8311 28.4678 97.6179 28.2711 98.208 27.8777C98.8145 27.4679 99.1178 26.9106 99.1178 26.2057C99.1178 25.4845 98.8309 24.9845 98.2572 24.7059C97.6999 24.4272 96.9541 24.2059 96.0197 24.042L94.8887 23.8453C94.1347 23.7142 93.4544 23.5175 92.8479 23.2552C92.2414 22.9765 91.7579 22.6077 91.3973 22.1487C91.053 21.6898 90.8809 21.1161 90.8809 20.4276C90.8809 19.3949 91.2825 18.5835 92.0857 17.9934C92.9053 17.4033 93.9872 17.1083 95.3313 17.1083C96.6918 17.1083 97.7819 17.4197 98.6014 18.0426C99.4374 18.6491 99.962 19.5343 100.175 20.6981L98.7981 20.9931C98.6342 20.0424 98.2408 19.3703 97.6179 18.9769C97.0114 18.5835 96.2492 18.3868 95.3313 18.3868C94.4297 18.3868 93.7085 18.559 93.1676 18.9032C92.6266 19.2474 92.3562 19.7556 92.3562 20.4276C92.3562 21.0833 92.6021 21.5668 93.0938 21.8783C93.5856 22.1733 94.2576 22.3946 95.11 22.5422L96.241 22.7389C97.0606 22.87 97.7982 23.0667 98.4539 23.329C99.1096 23.5748 99.6259 23.9273 100.003 24.3862C100.396 24.8452 100.593 25.4517 100.593 26.2057C100.593 27.3367 100.167 28.2137 99.3145 28.8366C98.4621 29.4431 97.3065 29.7463 95.8476 29.7463ZM102.371 34.3196V17.4525H103.797V19.6408H104.092C104.437 18.9851 104.969 18.4032 105.691 17.8951C106.428 17.3706 107.453 17.1083 108.764 17.1083C109.829 17.1083 110.797 17.3624 111.665 17.8705C112.534 18.3623 113.223 19.0671 113.731 19.985C114.255 20.903 114.518 22.0012 114.518 23.2798V23.5748C114.518 24.837 114.263 25.9352 113.755 26.8696C113.247 27.7875 112.559 28.5006 111.69 29.0087C110.821 29.5005 109.846 29.7463 108.764 29.7463C107.895 29.7463 107.149 29.6316 106.527 29.4021C105.92 29.1562 105.42 28.8448 105.027 28.4678C104.65 28.0908 104.355 27.7056 104.142 27.3122H103.846V34.3196H102.371ZM108.42 28.4186C109.78 28.4186 110.879 27.9842 111.715 27.1155C112.567 26.2467 112.993 25.0501 112.993 23.5257V23.329C112.993 21.8045 112.567 20.6079 111.715 19.7392C110.879 18.8704 109.78 18.436 108.42 18.436C107.076 18.436 105.977 18.8704 105.125 19.7392C104.273 20.6079 103.846 21.8045 103.846 23.329V23.5257C103.846 25.0501 104.273 26.2467 105.125 27.1155C105.977 27.9842 107.076 28.4186 108.42 28.4186ZM120.209 29.7463C119.373 29.7463 118.611 29.607 117.923 29.3283C117.25 29.0333 116.718 28.6071 116.324 28.0498C115.931 27.4925 115.734 26.8204 115.734 26.0336C115.734 25.2304 115.931 24.5665 116.324 24.042C116.718 23.5175 117.25 23.1241 117.923 22.8618C118.595 22.5995 119.34 22.4684 120.16 22.4684H124.537V21.5095C124.537 20.5424 124.258 19.7883 123.701 19.2474C123.143 18.7065 122.332 18.436 121.266 18.436C120.217 18.436 119.381 18.6983 118.758 19.2228C118.152 19.731 117.742 20.4194 117.529 21.2882L116.103 20.8702C116.3 20.1653 116.611 19.5343 117.037 18.9769C117.464 18.4032 118.029 17.9525 118.734 17.6246C119.439 17.2804 120.283 17.1083 121.266 17.1083C122.774 17.1083 123.938 17.5017 124.758 18.2885C125.594 19.0753 126.012 20.1735 126.012 21.5832V27.3859C126.012 27.8777 126.241 28.1235 126.7 28.1235H127.856V29.4021H126.282C125.774 29.4021 125.373 29.2546 125.078 28.9595C124.782 28.6481 124.635 28.2301 124.635 27.7056V27.5334H124.389C124.176 27.8941 123.897 28.2465 123.553 28.5907C123.225 28.9349 122.791 29.2136 122.25 29.4267C121.709 29.6398 121.029 29.7463 120.209 29.7463ZM120.308 28.4186C121.57 28.4186 122.586 28.0416 123.356 27.2876C124.143 26.5172 124.537 25.4353 124.537 24.042V23.7469H120.185C119.332 23.7469 118.619 23.9354 118.045 24.3125C117.488 24.6731 117.209 25.2386 117.209 26.009C117.209 26.7794 117.496 27.3777 118.07 27.8039C118.66 28.2137 119.406 28.4186 120.308 28.4186ZM134.041 29.7463C132.878 29.7463 131.837 29.5005 130.919 29.0087C130.017 28.5006 129.304 27.7793 128.78 26.845C128.255 25.9107 127.993 24.8124 127.993 23.5502V23.3044C127.993 22.0258 128.255 20.9276 128.78 20.0096C129.304 19.0753 130.017 18.3623 130.919 17.8705C131.837 17.3624 132.878 17.1083 134.041 17.1083C135.189 17.1083 136.156 17.3296 136.943 17.7722C137.746 18.1983 138.369 18.7639 138.811 19.4687C139.27 20.1572 139.557 20.8866 139.672 21.657L138.221 21.952C138.139 21.3128 137.934 20.7309 137.607 20.2063C137.279 19.6654 136.82 19.2392 136.23 18.9278C135.64 18.5999 134.91 18.436 134.041 18.436C133.173 18.436 132.394 18.6409 131.706 19.0507C131.017 19.4441 130.468 20.0096 130.058 20.7473C129.665 21.4685 129.468 22.3291 129.468 23.329V23.5257C129.468 24.5256 129.665 25.3943 130.058 26.1319C130.468 26.8532 131.017 27.4187 131.706 27.8285C132.394 28.2219 133.173 28.4186 134.041 28.4186C135.353 28.4186 136.353 28.0826 137.041 27.4105C137.73 26.722 138.156 25.8861 138.32 24.9026L139.77 25.1976C139.623 25.968 139.311 26.7057 138.836 27.4105C138.377 28.099 137.746 28.6645 136.943 29.107C136.156 29.5332 135.189 29.7463 134.041 29.7463ZM147.184 29.7463C145.955 29.7463 144.881 29.4923 143.964 28.9841C143.062 28.4596 142.357 27.7301 141.849 26.7958C141.341 25.8615 141.087 24.7878 141.087 23.5748V23.2798C141.087 22.0504 141.341 20.9767 141.849 20.0588C142.357 19.1245 143.054 18.4032 143.939 17.8951C144.84 17.3706 145.865 17.1083 147.012 17.1083C148.127 17.1083 149.111 17.346 149.963 17.8213C150.832 18.2803 151.512 18.9524 152.004 19.8375C152.495 20.7063 152.741 21.7472 152.741 22.9601V23.7469H142.562C142.611 25.2386 143.062 26.3942 143.914 27.2138C144.783 28.017 145.873 28.4186 147.184 28.4186C148.299 28.4186 149.16 28.1645 149.766 27.6564C150.389 27.1482 150.864 26.5253 151.192 25.7877L152.52 26.3778C152.274 26.9187 151.93 27.4515 151.487 27.976C151.061 28.4842 150.504 28.9103 149.815 29.2546C149.127 29.5824 148.25 29.7463 147.184 29.7463ZM142.587 22.4684H151.241C151.176 21.1734 150.758 20.1817 149.987 19.4933C149.217 18.7884 148.225 18.436 147.012 18.436C145.816 18.436 144.824 18.7884 144.037 19.4933C143.25 20.1817 142.767 21.1734 142.587 22.4684Z" fill="white"></path>
</svg>
